<?xml version="1.0" standalone="no"?>
<!DOCTYPE svg PUBLIC "-//W3C//DTD SVG 20010904//EN"
 "http://www.w3.org/TR/2001/REC-SVG-20010904/DTD/svg10.dtd">
<svg version="1.0" xmlns="http://www.w3.org/2000/svg"
 width="3000.000000pt" height="3000.000000pt" viewBox="0 0 3000.000000 3000.000000"
 preserveAspectRatio="xMidYMid meet">

<g transform="translate(0.000000,3000.000000) scale(0.100000,-0.100000)"
fill="#000000" stroke="none">
<path d="M0 15000 l0 -15000 15000 0 15000 0 0 15000 0 15000 -15000 0 -15000
0 0 -15000z m11329 9895 c561 -133 1489 -1345 2583 -3375 480 -890 1084 -2148
1549 -3227 43 -100 87 -201 98 -225 50 -110 327 -776 547 -1317 57 -140 107
-257 111 -260 5 -3 8 -12 9 -18 3 -36 4 -38 15 -23 7 11 12 12 15 3 3 -6 18
-27 34 -45 20 -23 25 -35 17 -40 -8 -5 -9 -8 -1 -8 19 0 108 -54 96 -58 -6 -2
-21 2 -32 8 -36 20 -33 4 7 -36 22 -22 42 -47 46 -57 4 -11 16 -21 27 -24 11
-3 22 -15 26 -26 8 -25 73 -89 84 -82 4 3 13 -2 20 -9 6 -8 25 -18 41 -21 16
-4 29 -11 29 -16 0 -5 13 -9 28 -9 15 0 33 -5 39 -11 6 -6 27 -12 46 -13 20
-1 42 -8 50 -15 12 -9 21 -10 36 -1 16 8 27 7 44 -2 12 -7 27 -14 32 -14 25
-4 55 -17 55 -24 0 -4 14 -6 31 -4 24 3 30 0 26 -10 -3 -8 1 -17 8 -20 17 -6
11 -101 -7 -123 -8 -10 -7 -13 4 -13 19 0 12 -58 -10 -82 -10 -12 -12 -22 -5
-30 6 -7 13 -40 17 -73 5 -52 29 -119 47 -135 3 -3 13 -21 22 -41 20 -44 42
-63 61 -56 10 4 13 1 9 -9 -5 -13 11 -18 54 -17 7 1 10 -4 7 -9 -3 -5 3 -12
15 -15 12 -3 21 -9 21 -13 0 -4 17 -4 38 1 20 4 75 6 122 3 122 -7 124 -8 138
-21 7 -7 20 -9 28 -6 8 3 28 -4 44 -16 16 -11 36 -21 45 -21 8 0 15 -5 15 -11
0 -6 7 -9 15 -5 8 3 15 1 15 -4 0 -5 18 -15 40 -21 23 -7 42 -20 46 -31 3 -11
11 -17 17 -15 7 2 28 -2 46 -10 19 -7 41 -11 48 -9 7 3 13 1 13 -5 0 -6 7 -8
16 -5 8 3 12 2 9 -4 -3 -6 -1 -10 5 -10 6 0 9 -4 6 -8 -3 -5 8 -9 25 -10 17 0
37 -6 44 -12 8 -7 19 -9 25 -5 5 3 10 2 10 -3 0 -10 92 -8 109 3 6 3 14 0 16
-7 6 -16 71 -19 93 -5 7 5 48 10 90 12 44 2 90 11 107 19 18 9 31 12 33 6 5
-13 32 -13 32 0 0 5 7 7 15 4 8 -4 17 1 21 9 3 9 19 20 36 26 40 14 51 14 42
-1 -4 -7 9 2 29 21 l37 35 -58 32 c-67 39 -62 45 8 9 27 -14 55 -25 62 -25 8
0 61 47 118 105 58 58 122 114 143 125 42 22 51 24 42 11 -3 -6 4 -8 16 -6 13
3 25 9 29 14 3 6 11 6 20 1 12 -7 4 -20 -40 -65 -30 -30 -52 -55 -49 -55 2 0
45 41 94 91 50 51 85 89 79 85 -18 -9 -36 19 -32 51 2 20 9 28 23 28 15 0 21
-8 25 -33 l5 -33 150 158 c1078 1132 1938 2152 2615 3098 261 366 630 938 630
978 0 9 6 20 14 24 32 18 263 461 361 692 110 259 193 533 211 696 4 39 9 64
12 57 13 -38 -49 -326 -106 -492 -160 -465 -485 -1066 -940 -1735 -683 -1006
-1662 -2192 -2835 -3438 -87 -92 -156 -171 -153 -176 3 -4 -14 -25 -37 -47
l-42 -39 40 45 40 45 -42 -39 c-23 -22 -40 -43 -37 -48 3 -4 -21 -36 -54 -71
-73 -77 -90 -105 -67 -114 12 -4 13 -8 5 -13 -15 -9 17 -32 143 -99 53 -29 97
-54 97 -57 0 -4 -80 33 -123 57 -9 5 -42 20 -73 34 -48 21 -54 22 -52 7 2 -9
11 -23 21 -30 11 -9 16 -21 12 -33 -4 -11 -2 -19 4 -19 6 0 11 -7 11 -15 0 -7
8 -19 18 -24 16 -10 15 -10 -3 -11 -18 -1 -19 -2 -3 -14 16 -11 14 -15 -17
-45 -19 -18 -35 -36 -35 -41 0 -4 -12 -10 -27 -13 -46 -10 -54 -21 -57 -75 -1
-28 -5 -54 -9 -58 -13 -13 -7 -64 8 -70 9 -4 15 -11 14 -18 -4 -25 33 -78 57
-83 6 -1 98 -4 205 -8 295 -8 450 -15 494 -20 51 -6 371 -18 409 -16 16 1 34
5 40 9 16 9 43 3 83 -19 19 -11 32 -15 29 -10 -3 5 3 7 14 4 11 -3 20 -10 20
-15 0 -5 12 -20 28 -33 33 -30 19 -31 -42 -6 -24 11 -46 16 -48 11 -3 -9 -82
-15 -298 -25 -69 -3 -154 -8 -190 -10 -36 -3 -153 -7 -260 -10 -107 -3 -276
-8 -375 -12 -99 -3 -201 -7 -227 -7 -25 -1 -45 -3 -43 -6 3 -6 -66 -43 -112
-61 -48 -19 -78 -34 -85 -43 -3 -5 -14 -11 -24 -12 -10 -2 -21 -10 -26 -18 -5
-9 -18 -16 -29 -16 -11 0 -22 -6 -25 -13 -2 -7 -16 -14 -30 -15 -14 -1 -38
-11 -54 -22 -15 -11 -34 -20 -42 -20 -8 0 -25 -11 -38 -25 -13 -14 -29 -25
-36 -25 -7 0 -19 -7 -28 -15 -8 -9 -19 -17 -23 -18 -4 -1 -7 -6 -5 -10 1 -5
-2 -6 -7 -3 -5 3 -45 -12 -89 -34 -44 -22 -82 -40 -86 -40 -3 0 -27 -15 -53
-34 -27 -18 -53 -31 -60 -29 -6 2 -31 -10 -54 -26 -23 -17 -46 -31 -50 -31
-11 0 -154 -103 -213 -153 -26 -23 -50 -41 -53 -39 -2 2 -19 -14 -36 -34 -18
-21 -40 -46 -49 -56 -10 -10 -18 -21 -18 -24 0 -3 -12 -18 -27 -34 -53 -53
-85 -94 -86 -112 -1 -10 -7 -20 -14 -23 -18 -6 -21 4 139 -495 185 -576 355
-1125 414 -1335 l48 -169 260 -264 c144 -145 272 -270 286 -277 34 -18 546
-171 930 -278 1288 -361 2469 -605 3376 -696 547 -56 1040 -57 1379 -5 432 67
693 219 762 442 19 61 18 211 -1 284 -142 532 -816 1234 -2026 2109 -256 185
-542 376 -526 351 13 -21 -60 -14 -116 12 -29 13 -63 34 -75 47 -30 33 -53 91
-53 133 0 19 -4 38 -10 41 -5 3 -10 15 -10 27 0 16 5 19 21 15 15 -4 29 3 50
27 51 59 154 71 212 26 14 -11 30 -20 36 -20 17 0 54 -80 67 -148 11 -58 10
-63 -5 -57 -19 7 -12 1 47 -44 32 -25 46 -30 56 -22 15 13 26 5 26 -19 0 -11
60 -59 158 -128 366 -256 813 -602 1098 -849 1101 -956 1445 -1690 976 -2081
-166 -138 -426 -225 -797 -268 -186 -21 -690 -24 -935 -6 -1125 87 -2632 406
-4294 911 -110 34 -204 61 -208 61 -23 0 169 -210 561 -615 129 -133 346 -364
441 -468 23 -26 41 -50 38 -52 -8 -8 -286 249 -663 616 -194 189 -464 442
-565 531 -82 73 -89 77 -203 112 -65 20 -124 39 -132 42 -17 7 -12 -17 96
-419 486 -1817 778 -3329 865 -4482 19 -264 22 -748 5 -925 -56 -570 -214
-859 -486 -886 -451 -45 -1158 726 -2032 2216 -646 1101 -1279 2380 -2050
4145 -96 220 -181 411 -187 424 l-13 23 -34 -29 c-116 -102 -535 -427 -543
-421 -3 1 -12 -6 -20 -17 -9 -11 -16 -16 -16 -11 0 5 -10 0 -22 -11 -34 -30
-751 -566 -988 -737 -113 -82 -236 -172 -275 -201 -205 -152 -891 -618 -1235
-839 -401 -258 -413 -264 -396 -238 5 8 2 10 -9 5 -12 -4 -13 -8 -5 -13 19
-12 -7 -23 -27 -11 -20 11 -57 -4 -48 -20 9 -14 23 -11 27 6 2 9 8 12 17 6 10
-6 -4 -19 -49 -45 -34 -20 -64 -35 -66 -33 -2 2 14 14 36 26 22 12 40 23 40
25 0 1 -13 3 -30 3 -16 0 -27 -4 -24 -9 3 -4 -2 -8 -10 -8 -8 0 -19 -7 -23
-15 -6 -10 -13 -11 -23 -5 -10 7 -11 10 -2 10 6 0 12 6 12 14 0 7 10 20 22 28
17 11 19 16 8 23 -9 5 -11 4 -6 -3 4 -7 2 -12 -4 -12 -7 0 -9 7 -6 16 4 12 2
15 -9 10 -22 -8 -18 2 6 15 15 8 19 8 15 0 -4 -7 1 -11 13 -11 12 0 21 5 21
10 0 6 8 10 18 8 9 -2 16 2 15 8 -1 7 9 15 22 18 14 4 25 11 25 17 0 8 -5 7
-15 -1 -8 -7 -15 -10 -15 -6 0 4 -12 -1 -27 -11 -16 -9 -23 -11 -17 -5 5 7 46
34 90 61 63 39 82 47 93 38 12 -10 14 -9 8 5 -7 19 37 53 55 42 6 -4 8 -3 4 4
-3 6 11 20 31 33 237 143 939 615 1328 893 94 67 242 173 330 236 194 138 733
540 904 674 69 53 126 104 127 113 3 21 55 74 69 69 5 -2 9 -9 7 -15 -1 -7 2
-10 8 -6 7 4 7 12 0 25 -8 15 -6 21 7 29 10 6 15 11 10 11 -4 0 0 11 9 25 9
14 20 22 25 19 5 -3 9 0 9 7 0 7 7 19 15 28 8 9 28 31 45 49 16 19 34 31 40
27 6 -3 7 0 4 9 -3 9 -11 13 -18 9 -6 -4 -5 1 3 10 14 18 22 22 20 10 -3 -20
2 -23 17 -9 8 9 13 20 10 25 -5 7 126 118 303 258 5 4 -37 111 -175 443 -178
432 -226 545 -231 550 -3 3 -3 -4 0 -15 7 -19 6 -19 -7 -2 -13 16 -15 16 -41
-15 -46 -57 -51 -62 -78 -85 -15 -13 -32 -23 -37 -23 -6 0 -10 -7 -10 -15 0
-16 -16 -20 -24 -6 -7 11 -56 2 -56 -11 0 -5 -13 1 -28 14 -22 18 -27 30 -24
53 2 22 1 26 -6 16 -13 -18 -42 -7 -42 15 0 9 -10 33 -22 53 -13 20 -21 44
-20 53 2 10 -2 18 -7 18 -6 0 -11 6 -11 13 -1 18 -37 62 -52 62 -7 0 -14 11
-16 25 -3 27 -146 170 -169 170 -7 0 -13 6 -13 14 0 25 -69 44 -147 40 -40 -1
-78 -6 -85 -10 -26 -16 -59 -8 -95 22 -37 31 -37 31 -20 58 10 14 15 26 11 26
-4 0 -1 7 6 15 7 8 9 15 5 15 -4 0 5 16 19 35 28 36 27 37 -26 38 -16 1 -28 5
-28 9 0 4 -3 7 -7 6 -8 -1 -35 7 -63 20 -8 4 -34 7 -57 7 -24 0 -43 3 -43 7 0
7 -88 24 -104 20 -4 -2 -14 3 -22 9 -11 9 -18 8 -29 -1 -14 -11 -19 -7 -16 13
1 10 -11 9 -28 -2 -10 -6 -25 -4 -43 5 -15 8 -30 14 -33 14 -10 -1 -39 32 -57
66 -10 19 -16 34 -13 34 3 0 -3 12 -12 27 -12 18 -13 24 -4 19 9 -6 12 -5 9 5
-3 8 -10 13 -16 12 -6 -2 -9 4 -6 12 4 8 -1 26 -10 40 -9 13 -16 31 -16 40 0
8 -4 15 -9 15 -5 0 -8 8 -7 18 1 18 -238 142 -619 322 -99 46 -292 140 -428
207 -136 68 -252 123 -258 123 -6 0 -41 -28 -77 -62 -37 -35 -61 -56 -54 -47
14 19 6 30 -16 22 -10 -4 -13 -2 -8 5 13 21 -24 25 -47 6 -12 -11 7 12 41 51
34 38 62 72 62 75 0 3 -33 22 -73 42 -85 45 -545 289 -772 411 -156 84 -163
87 -240 91 -145 9 -440 36 -465 43 -14 3 -31 5 -38 4 -7 -1 -19 4 -27 12 -12
13 -9 16 28 26 23 6 67 13 97 15 30 3 97 10 148 17 78 10 90 14 80 26 -6 8 -7
13 -2 12 22 -4 35 2 28 13 -5 8 -1 9 12 4 43 -16 -11 18 -231 147 -210 124
-257 157 -225 157 6 0 9 -4 5 -9 -3 -6 3 -9 12 -9 10 1 68 -26 128 -59 209
-116 438 -233 443 -228 3 3 0 5 -6 5 -7 0 -12 5 -12 10 0 7 6 7 19 0 13 -7 22
-7 26 0 3 5 1 10 -6 10 -7 0 -10 2 -7 5 2 3 37 -11 77 -30 l73 -36 307 2 c193
0 311 5 318 11 7 6 22 8 33 5 11 -3 20 -1 20 4 0 5 15 9 33 9 19 0 37 3 41 8
4 4 16 8 27 8 10 1 28 2 40 3 11 0 17 6 14 11 -4 6 5 10 19 10 14 0 26 4 26 9
0 5 14 7 31 4 20 -3 35 0 40 9 4 7 14 13 21 14 34 3 39 5 33 13 -3 5 0 13 6
17 7 4 9 3 6 -3 -4 -6 2 -13 13 -16 13 -3 18 -1 13 6 -4 6 0 8 9 4 9 -3 23 2
33 13 10 11 24 16 33 13 10 -4 13 -2 8 5 -5 8 -2 10 8 6 11 -4 16 0 16 10 0
10 9 16 23 16 13 0 27 4 33 10 5 5 18 11 29 13 11 2 27 7 35 10 8 3 41 13 73
21 33 8 67 22 77 31 10 9 23 14 29 11 5 -4 13 -2 16 4 4 6 16 8 27 4 17 -5 20
-3 15 10 -5 14 -3 15 13 6 21 -11 70 -4 70 10 0 5 8 9 18 9 43 1 68 7 77 19 6
7 30 15 55 18 25 3 51 12 58 21 6 9 12 13 12 9 0 -4 7 0 16 8 8 9 21 16 28 16
7 0 21 9 31 20 10 12 25 18 32 16 7 -3 13 -1 13 5 0 6 7 9 15 5 9 -3 15 0 15
9 0 9 9 15 21 15 15 0 19 5 15 15 -4 11 1 15 19 15 15 0 26 7 30 21 5 16 9 18
21 8 12 -10 15 -10 12 2 -2 8 7 15 20 17 13 2 26 10 29 18 3 8 12 14 19 14 8
0 17 6 20 14 3 8 23 26 45 41 22 14 45 37 51 50 6 14 16 25 22 25 6 0 22 16
35 35 13 19 30 35 37 35 7 0 18 9 24 20 6 11 14 19 18 19 21 -3 32 3 32 18 0
9 3 13 7 10 7 -8 53 55 53 72 0 6 4 11 9 11 5 0 12 14 16 31 4 17 14 33 22 36
11 4 11 8 3 13 -9 5 -8 15 4 39 13 24 16 49 12 101 -3 39 -1 70 3 70 10 0 -3
98 -18 133 -6 16 -9 33 -5 38 3 5 2 15 -3 22 -4 6 -8 17 -10 22 -8 38 -14 57
-33 115 -22 65 -29 82 -69 172 -12 26 -21 52 -21 58 0 7 -9 25 -21 41 -11 16
-17 34 -14 39 4 6 1 9 -6 8 -7 -2 -14 2 -14 7 -4 31 -20 77 -46 132 -16 34
-29 69 -29 78 0 8 -10 19 -22 24 -14 5 -17 10 -10 15 21 13 14 53 -9 59 -19 5
-21 10 -14 39 4 18 8 40 8 48 2 18 20 39 28 34 19 -11 14 35 -13 122 l-30 99
-102 105 c-56 58 -303 314 -550 570 -247 256 -503 520 -570 588 -67 67 -130
133 -142 145 -11 12 -85 90 -164 172 -359 374 -554 582 -590 629 -14 18 -13
19 3 10 44 -25 429 -390 1247 -1184 652 -633 774 -750 777 -746 2 2 -20 86
-51 187 -323 1090 -529 1853 -781 2909 -31 129 -63 258 -72 286 -15 48 -18 51
-47 49 -74 -3 -169 63 -215 150 -42 79 -23 219 39 297 39 48 38 66 -5 308
-150 835 -225 1536 -225 2095 0 279 9 428 35 600 82 529 306 769 644 690z
m814 -8045 c3 -11 1 -18 -4 -14 -5 3 -9 12 -9 20 0 20 7 17 13 -6z m6005 -453
c2 -10 -3 -17 -12 -17 -10 0 -16 9 -16 21 0 24 23 21 28 -4z m-8973 -1967 c-3
-5 -12 -10 -18 -10 -7 0 -6 4 3 10 19 12 23 12 15 0z m11159 -14 c-3 -8 -12
-12 -20 -9 -21 8 -17 23 6 23 13 0 18 -5 14 -14z m-8154 -2264 c0 -13 -12 -22
-22 -16 -10 6 -1 24 13 24 5 0 9 -4 9 -8z m-1613 -3767 c0 -8 -4 -12 -9 -9 -5
3 -6 10 -3 15 9 13 12 11 12 -6z m14 -78 c-18 -18 -38 8 -21 28 12 15 14 15
23 0 6 -11 5 -21 -2 -28z m49 6 c0 -5 -19 -19 -43 -32 -47 -26 -45 -21 5 15
38 26 38 27 38 17z m-100 -67 c0 -2 -7 -7 -16 -10 -8 -3 -12 -2 -9 4 6 10 25
14 25 6z m-704 -363 c-11 -11 -17 4 -9 23 7 18 8 18 11 1 2 -10 1 -21 -2 -24z
m-3052 -397 c76 -8 174 -48 256 -103 59 -41 168 -144 215 -204 11 -15 38 -37
60 -51 22 -14 60 -42 83 -62 28 -23 54 -36 72 -36 20 0 31 -6 35 -20 3 -11 11
-20 17 -20 6 0 8 -3 5 -6 -3 -4 -2 -14 2 -23 12 -22 -16 -55 -60 -70 -34 -11
-109 -80 -274 -250 -67 -69 -190 -159 -265 -193 -68 -31 -126 -42 -235 -42
-100 -1 -118 2 -185 29 -41 16 -76 33 -78 37 -2 4 -10 4 -18 1 -8 -3 -14 1
-14 10 0 22 -23 27 -37 8 -12 -14 -14 -14 -28 3 -8 11 -15 33 -15 48 0 16 -6
31 -14 34 -26 10 -94 124 -114 189 -37 127 -40 164 -18 279 28 144 109 269
225 348 25 18 48 36 50 41 11 29 205 80 251 66 14 -4 52 -10 84 -13z"/>
<path d="M11113 24731 c-151 -69 -248 -319 -284 -731 -15 -171 -6 -707 16
-950 33 -367 89 -785 161 -1200 72 -417 108 -585 125 -574 13 8 65 -23 98 -58
119 -127 119 -292 0 -403 -51 -47 -64 -53 -73 -32 -12 26 7 -106 40 -272 144
-724 574 -2363 825 -3147 l29 -91 181 -173 c150 -142 186 -171 205 -167 16 3
24 0 24 -10 0 -8 5 -11 10 -8 6 4 17 1 25 -5 12 -10 18 -10 29 -1 11 9 15 9
18 -1 4 -10 8 -10 20 -1 11 10 17 10 26 1 7 -7 12 -8 12 -3 0 5 11 -2 26 -16
18 -17 23 -19 18 -6 -3 10 -1 17 5 17 6 0 11 -4 11 -10 0 -5 14 -16 30 -25 28
-14 30 -14 30 1 0 14 7 16 40 11 22 -3 40 -1 40 4 0 5 9 9 20 9 11 0 20 5 20
11 0 7 11 9 31 5 19 -3 53 2 89 14 33 11 73 20 90 20 17 0 30 5 30 12 0 9 3 9
12 0 7 -7 20 -12 29 -12 10 0 19 -4 21 -8 3 -8 110 -42 138 -44 8 -1 20 -7 25
-14 6 -7 32 -20 59 -29 27 -9 54 -19 60 -23 6 -3 18 -7 26 -9 8 -1 16 -6 18
-12 2 -5 10 -7 18 -4 8 3 14 1 14 -5 0 -5 27 -18 60 -28 33 -11 60 -21 60 -24
0 -3 26 -4 57 -3 35 1 61 -3 65 -10 6 -8 10 -9 16 -1 8 11 51 12 69 1 6 -4 18
-4 27 -1 8 3 40 7 70 7 l55 2 213 177 c117 97 222 185 233 195 31 28 112 88
98 73 -17 -18 -17 -38 -1 -22 7 7 16 12 21 12 5 0 -42 -44 -105 -97 -199 -170
-376 -328 -372 -332 2 -2 12 3 21 11 16 14 78 30 123 33 8 0 21 4 28 8 6 5 15
6 20 3 4 -2 41 1 82 8 41 7 134 14 205 15 72 1 143 3 159 5 16 2 41 0 55 -4
15 -4 40 -5 58 -3 27 4 33 10 44 51 7 26 12 50 11 55 -1 4 3 7 9 7 8 0 8 5 -1
15 -11 13 -8 15 14 15 19 0 26 5 26 19 0 10 7 25 17 32 17 15 95 21 87 7 -3
-4 1 -8 9 -8 8 0 18 -12 22 -27 7 -32 52 -83 72 -83 8 0 12 -4 9 -9 -6 -8 16
-23 39 -26 6 0 9 -6 7 -13 -1 -7 5 -12 14 -12 8 0 31 -11 51 -25 28 -18 40
-22 50 -13 10 8 12 7 8 -4 -4 -10 5 -18 30 -25 31 -10 39 -9 54 5 9 9 31 28
49 41 18 13 31 26 29 28 -3 2 13 21 34 43 22 22 39 47 39 55 0 8 8 15 18 15
15 0 15 2 2 11 -11 8 -8 9 13 4 16 -3 26 -2 23 3 -2 4 5 14 17 22 19 11 20 11
10 -1 -18 -23 -19 -25 -4 -42 7 -10 9 -17 4 -17 -5 0 -10 -28 -10 -62 -1 -35
-8 -97 -17 -138 -11 -58 -12 -71 -2 -57 7 9 23 17 34 17 28 0 72 -21 73 -34 0
-6 4 -2 9 9 7 17 9 17 9 3 1 -10 6 -18 12 -18 6 0 8 9 4 21 -6 19 -4 21 24 17
23 -3 31 -1 31 11 0 9 3 12 8 6 13 -18 41 -16 52 5 9 16 -2 52 -59 197 -116
295 -341 850 -381 938 -10 22 -84 198 -166 390 -985 2335 -2007 4301 -2817
5420 -343 475 -699 848 -948 996 -145 87 -274 111 -366 70z m1067 -5851 c0 -5
-5 -10 -11 -10 -5 0 -7 5 -4 10 3 6 8 10 11 10 2 0 4 -4 4 -10z m3485 -1718
c0 -18 -20 -15 -23 4 -3 10 1 15 10 12 7 -3 13 -10 13 -16z m115 -442 c0 -5
-5 -10 -11 -10 -5 0 -7 5 -4 10 3 6 8 10 11 10 2 0 4 -4 4 -10z"/>
<path d="M12143 16977 c3 -8 11 -33 18 -56 13 -44 18 -48 37 -29 10 10 15 10
22 -2 5 -8 10 -11 10 -6 0 5 -21 31 -47 59 -25 27 -43 43 -40 34z"/>
<path d="M12181 16860 c0 -8 4 -22 9 -30 12 -18 12 -2 0 25 -6 13 -9 15 -9 5z"/>
<path d="M15857 16713 c-11 -11 -8 -20 7 -20 8 0 12 6 9 14 -6 15 -7 15 -16 6z"/>
<path d="M10250 14311 c0 -6 7 -7 17 -4 9 4 14 2 10 -3 -3 -6 17 -22 44 -37
46 -25 50 -25 44 -7 -4 13 -1 22 9 26 9 3 13 10 10 16 -3 5 -12 4 -22 -4 -10
-9 -13 -9 -9 -1 5 7 1 11 -10 11 -10 -1 -35 2 -55 6 -24 4 -38 3 -38 -3z m75
-21 c3 -6 -1 -7 -9 -4 -18 7 -21 14 -7 14 6 0 13 -4 16 -10z"/>
<path d="M10436 14304 c-3 -9 -12 -14 -19 -11 -6 2 -18 -1 -24 -9 -10 -10 -10
-13 0 -17 9 -3 8 -8 -3 -22 -14 -17 -13 -18 3 -12 11 4 20 1 23 -7 3 -8 23
-22 45 -30 46 -18 60 -20 39 -5 -12 9 -11 10 7 6 13 -3 24 1 27 10 4 10 2 13
-8 10 -10 -4 -18 4 -25 24 -8 24 -7 29 5 29 8 0 12 -4 9 -10 -3 -5 -2 -10 3
-10 6 0 12 6 15 14 8 21 -44 32 -55 11 -5 -8 -14 -13 -19 -9 -6 4 -6 10 0 17
6 8 4 16 -4 24 -10 10 -14 9 -19 -3z m34 -84 c0 -5 8 -7 18 -4 15 5 15 4 -2
-6 -14 -10 -21 -9 -34 4 -15 15 -15 16 1 16 9 0 17 -4 17 -10z"/>
<path d="M10585 14280 c-3 -5 -1 -10 4 -10 6 0 11 5 11 10 0 6 -2 10 -4 10 -3
0 -8 -4 -11 -10z"/>
<path d="M10580 14240 c0 -5 5 -10 10 -10 6 0 10 5 10 10 0 6 -4 10 -10 10 -5
0 -10 -4 -10 -10z"/>
<path d="M11750 13554 c0 -7 62 -35 67 -31 2 3 -5 8 -16 12 -12 3 -21 10 -21
14 0 4 -7 8 -15 8 -8 0 -15 -2 -15 -3z"/>
<path d="M11805 13550 c3 -5 8 -10 11 -10 2 0 4 5 4 10 0 6 -5 10 -11 10 -5 0
-7 -4 -4 -10z"/>
<path d="M11835 13510 c3 -5 8 -10 11 -10 2 0 4 5 4 10 0 6 -5 10 -11 10 -5 0
-7 -4 -4 -10z"/>
<path d="M11875 13490 c3 -5 11 -10 16 -10 6 0 7 5 4 10 -3 6 -11 10 -16 10
-6 0 -7 -4 -4 -10z"/>
<path d="M11917 13486 c-7 -18 23 -30 37 -16 8 8 7 14 -4 20 -21 13 -27 12
-33 -4z"/>
<path d="M11975 13450 c-3 -5 -2 -10 4 -10 5 0 13 5 16 10 3 6 2 10 -4 10 -5
0 -13 -4 -16 -10z"/>
<path d="M12020 13426 c0 -2 7 -7 16 -10 8 -3 12 -2 9 4 -6 10 -25 14 -25 6z"/>
<path d="M17215 12997 c3 -15 0 -37 -7 -50 -18 -33 -19 -167 -2 -174 8 -3 14
-16 14 -29 0 -15 6 -24 15 -24 8 0 15 -9 15 -19 0 -11 7 -26 15 -35 8 -8 15
-23 15 -33 0 -10 9 -26 20 -36 24 -20 27 -42 4 -33 -9 3 -12 2 -9 -5 4 -5 16
-7 28 -3 12 3 19 3 15 -1 -8 -8 32 -49 39 -41 4 4 -86 285 -137 426 -16 47
-28 73 -25 57z"/>
<path d="M17382 12490 c0 -8 6 -31 13 -50 7 -19 13 -28 13 -20 0 8 -6 31 -13
50 -7 19 -13 28 -13 20z"/>
<path d="M13874 12102 c39 -108 262 -654 341 -834 l47 -107 121 98 c139 112
215 174 380 314 107 90 138 120 105 101 -10 -6 -10 -4 0 7 6 7 12 26 12 42 0
16 4 26 10 22 6 -3 7 1 4 9 -3 9 -15 16 -25 16 -12 0 -19 7 -19 18 0 11 -14
25 -36 35 -19 10 -32 22 -29 27 3 6 1 10 -4 10 -6 0 -10 5 -8 11 1 6 -7 16
-18 22 -11 7 -24 18 -28 25 -4 6 -13 12 -20 12 -7 0 -23 6 -38 13 -14 8 -33
13 -42 11 -9 -1 -17 2 -17 7 0 5 -13 9 -30 9 -16 0 -30 4 -30 9 0 6 -19 11
-42 13 -36 2 -48 -2 -71 -24 -16 -15 -34 -25 -42 -21 -9 3 -21 1 -28 -5 -25
-21 -74 -21 -96 0 -12 10 -25 17 -30 14 -5 -3 -14 1 -21 9 -7 8 -23 15 -37 15
-13 0 -22 4 -18 9 3 6 -9 8 -27 6 -19 -3 -28 -1 -20 3 9 6 5 12 -13 22 -14 7
-25 17 -25 22 0 4 -7 8 -15 8 -8 0 -15 5 -15 11 0 5 -10 9 -22 7 -15 -2 -22 2
-20 11 2 8 -3 11 -12 8 -8 -3 -16 -3 -18 1 -6 14 -68 41 -68 30 0 -6 -10 -3
-25 6 l-24 16 13 -38z"/>
<path d="M16624 12101 c3 -4 -6 -6 -19 -3 -14 2 -31 -1 -39 -7 -7 -6 -26 -12
-42 -14 -30 -4 -34 -5 -121 -43 -29 -13 -53 -20 -53 -16 0 4 -4 1 -8 -6 -7
-10 -102 -20 -122 -12 -13 5 -75 10 -184 15 -107 4 -123 3 -154 -15 -18 -11
-38 -18 -43 -15 -5 4 -9 -1 -9 -9 0 -9 -11 -23 -25 -32 -14 -9 -22 -20 -19
-25 3 -5 1 -9 -4 -9 -13 0 -32 -48 -26 -65 5 -11 2 -14 -12 -9 -40 13 27 -28
93 -58 48 -22 63 -32 52 -38 -7 -5 -25 -7 -39 -4 -87 18 150 -73 785 -301 688
-247 1205 -422 1205 -406 0 3 -14 12 -31 20 -16 7 -28 15 -25 18 2 2 14 -1 27
-7 21 -12 22 -11 15 21 -3 19 -25 97 -48 174 l-41 140 -81 83 c-45 46 -166
166 -271 266 -139 133 -197 181 -215 182 -33 1 -52 7 -67 21 -7 6 -32 14 -55
18 -24 4 -58 14 -77 21 -24 10 -38 11 -45 4 -17 -17 -28 -11 -20 13 3 12 3 19
-1 15 -3 -3 -21 -2 -38 4 -18 5 -38 10 -45 12 -7 1 -18 8 -24 14 -7 7 -22 12
-34 12 -13 0 -26 5 -29 10 -3 6 -16 10 -28 10 -12 0 -35 7 -51 15 -32 17 -39
19 -32 6z m1116 -1015 c0 -11 -19 -15 -25 -6 -3 5 1 10 9 10 9 0 16 -2 16 -4z
m30 -16 c0 -5 -4 -10 -10 -10 -5 0 -10 5 -10 10 0 6 5 10 10 10 6 0 10 -4 10
-10z"/>
<path d="M17580 11831 c0 -5 5 -13 10 -16 6 -3 10 -2 10 4 0 5 -4 13 -10 16
-5 3 -10 2 -10 -4z"/>
<path d="M17578 11781 c-2 -9 11 -32 29 -51 l33 -35 -17 51 c-15 49 -38 67
-45 35z"/>
<path d="M15539 11696 c-3 -3 -18 -7 -34 -10 -74 -13 -154 -39 -219 -71 -84
-40 -179 -94 -186 -105 -5 -8 -91 -54 -102 -55 -3 0 -10 -4 -15 -9 -5 -5 -3
-6 5 -2 6 4 12 2 12 -4 0 -6 -8 -10 -18 -8 -10 1 -24 -3 -32 -10 -28 -23 -126
-102 -353 -283 -126 -100 -231 -188 -234 -196 -10 -26 310 -762 642 -1473
1114 -2389 2185 -4162 2954 -4893 243 -230 446 -348 606 -350 89 -2 146 24
212 97 109 119 173 329 204 666 17 180 5 711 -21 975 -71 735 -198 1472 -426
2475 -161 709 -492 1966 -630 2392 l-29 87 -165 57 c-689 237 -1029 358 -1593
568 -267 100 -341 124 -355 116 -14 -9 -13 -10 7 -4 20 5 22 4 11 -8 -12 -12
-29 -10 -123 19 -123 37 -112 34 -118 29z m-604 -316 c-3 -5 -12 -10 -18 -10
-7 0 -6 4 3 10 19 12 23 12 15 0z m-103 -102 c-15 -15 -26 -4 -18 18 5 13 9
15 18 6 9 -9 9 -15 0 -24z m3305 -1618 c1 -11 -2 -18 -8 -15 -11 7 -12 35 -1
35 4 0 8 -9 9 -20z"/>
<path d="M18056 11065 c4 -16 15 -52 24 -79 16 -49 16 -49 90 -72 41 -13 74
-23 75 -21 1 1 -43 47 -97 102 -85 86 -97 96 -92 70z"/>
<path d="M10770 8516 c0 -2 8 -10 18 -17 15 -13 16 -12 3 4 -13 16 -21 21 -21
13z"/>
</g>
</svg>
